<svg width="255" height="56" viewBox="0 0 255 56" fill="none" xmlns="http://www.w3.org/2000/svg">
<rect y="0.5" width="255" height="55" rx="27.5" fill="#57984C"/>
<path d="M74.0303 35.1743C73.2943 35.1743 72.5859 35.0664 71.9053 34.8506C71.2246 34.6348 70.5744 34.3027 69.9546 33.8545V31.2729H71.2246L71.4985 33.1738C71.8582 33.3952 72.2484 33.5667 72.6689 33.6885C73.0895 33.8102 73.5433 33.8711 74.0303 33.8711C74.5837 33.8711 75.0513 33.7881 75.4331 33.6221C75.8205 33.4505 76.1165 33.2153 76.3213 32.9165C76.526 32.6177 76.6284 32.269 76.6284 31.8706C76.6284 31.4998 76.5399 31.1733 76.3628 30.8911C76.1857 30.6089 75.8924 30.3626 75.4829 30.1523C75.0789 29.9365 74.5256 29.7484 73.8228 29.5879C72.9927 29.3942 72.2899 29.1369 71.7144 28.8159C71.1444 28.4894 70.71 28.0965 70.4111 27.6372C70.1178 27.1724 69.9712 26.6411 69.9712 26.0435C69.9712 25.4126 70.1372 24.8481 70.4692 24.3501C70.8068 23.8521 71.2744 23.4591 71.8721 23.1714C72.4697 22.8836 73.167 22.7397 73.9639 22.7397C74.8105 22.7397 75.5576 22.8698 76.2051 23.1299C76.8581 23.3844 77.3949 23.6943 77.8154 24.0596V26.4751H76.5454L76.2715 24.7485C76.0225 24.5493 75.7126 24.3833 75.3418 24.2505C74.971 24.1177 74.5117 24.0513 73.9639 24.0513C73.499 24.0513 73.0895 24.1343 72.7354 24.3003C72.3812 24.4608 72.1045 24.6877 71.9053 24.981C71.7061 25.2743 71.6064 25.6201 71.6064 26.0186C71.6064 26.3672 71.695 26.6715 71.8721 26.9316C72.0547 27.1917 72.348 27.4214 72.752 27.6206C73.1615 27.8143 73.7065 27.9969 74.3872 28.1685C75.66 28.4839 76.6229 28.9515 77.2759 29.5713C77.9344 30.1855 78.2637 30.9465 78.2637 31.854C78.2637 32.5015 78.0894 33.077 77.7407 33.5806C77.3921 34.0786 76.8996 34.4688 76.2632 34.751C75.6323 35.0332 74.888 35.1743 74.0303 35.1743ZM83.7173 35.1743C82.8872 35.1743 82.165 34.9862 81.5508 34.6099C80.9365 34.228 80.4606 33.6995 80.123 33.0244C79.791 32.3493 79.625 31.569 79.625 30.6836V30.3184C79.625 29.4661 79.7993 28.7052 80.1479 28.0356C80.5021 27.3605 80.9697 26.8293 81.5508 26.4419C82.1374 26.049 82.7765 25.8525 83.4683 25.8525C84.2762 25.8525 84.9513 26.0186 85.4937 26.3506C86.0415 26.6826 86.4538 27.1502 86.7305 27.7534C87.0072 28.3511 87.1455 29.0566 87.1455 29.8701V30.8911H81.3184L81.2935 30.9326C81.3045 31.5081 81.4041 32.02 81.5923 32.4683C81.786 32.911 82.0627 33.2596 82.4224 33.5142C82.7821 33.7687 83.2137 33.896 83.7173 33.896C84.2707 33.896 84.7549 33.8185 85.1699 33.6636C85.5905 33.5031 85.953 33.2845 86.2573 33.0078L86.8965 34.0703C86.5755 34.3802 86.1494 34.6431 85.6182 34.8589C85.0924 35.0692 84.4588 35.1743 83.7173 35.1743ZM81.3682 29.6128H85.5103V29.397C85.5103 28.9653 85.4328 28.5807 85.2778 28.2432C85.1284 27.9001 84.9015 27.6317 84.5972 27.438C84.2983 27.2388 83.922 27.1392 83.4683 27.1392C83.103 27.1392 82.771 27.2471 82.4722 27.4629C82.1733 27.6732 81.9271 27.9609 81.7334 28.3262C81.5397 28.6914 81.4124 29.1064 81.3516 29.5713L81.3682 29.6128ZM88.4238 35V33.9541L89.7769 33.7217V27.3052L88.4238 27.0728V26.0186H91.2378L91.354 27.355C91.6528 26.8791 92.0264 26.5111 92.4746 26.251C92.9284 25.9854 93.443 25.8525 94.0186 25.8525C94.987 25.8525 95.7368 26.1375 96.2681 26.7075C96.7993 27.272 97.0649 28.1463 97.0649 29.3306V33.7217L98.418 33.9541V35H94.0767V33.9541L95.4297 33.7217V29.3638C95.4297 28.5724 95.272 28.0107 94.9565 27.6787C94.6466 27.3467 94.1707 27.1807 93.5288 27.1807C93.0584 27.1807 92.6406 27.2941 92.2754 27.521C91.9157 27.7479 91.6279 28.0578 91.4121 28.4507V33.7217L92.7651 33.9541V35H88.4238ZM103.025 35.1743C102.294 35.1743 101.666 34.9945 101.141 34.6348C100.62 34.2695 100.222 33.7632 99.9453 33.1157C99.6686 32.4683 99.5303 31.7129 99.5303 30.8496V30.6753C99.5303 29.7124 99.6686 28.8685 99.9453 28.1436C100.222 27.4186 100.623 26.8569 101.149 26.4585C101.675 26.0545 102.306 25.8525 103.042 25.8525C103.573 25.8525 104.04 25.9521 104.444 26.1514C104.854 26.3451 105.202 26.6273 105.49 26.998V23.3374L104.137 23.105V22.0508H105.49H107.125V33.7217L108.479 33.9541V35H105.706L105.573 33.9292C105.28 34.3387 104.92 34.6486 104.494 34.8589C104.074 35.0692 103.584 35.1743 103.025 35.1743ZM103.44 33.8462C103.927 33.8462 104.336 33.7355 104.668 33.5142C105 33.2928 105.274 32.9801 105.49 32.5762V28.4092C105.28 28.0329 105.006 27.734 104.668 27.5127C104.331 27.2913 103.927 27.1807 103.457 27.1807C102.936 27.1807 102.507 27.3301 102.17 27.6289C101.832 27.9222 101.581 28.3317 101.415 28.8574C101.249 29.3776 101.166 29.9836 101.166 30.6753V30.8496C101.166 31.7516 101.351 32.4766 101.722 33.0244C102.092 33.5723 102.665 33.8462 103.44 33.8462ZM114.007 35V33.9541L115.36 33.7217V24.2007L114.007 23.9683V22.9141H115.36H117.543L121.436 32.0864H121.486L125.254 22.9141H128.898V23.9683L127.545 24.2007V33.7217L128.898 33.9541V35H124.557V33.9541L125.985 33.7217V30.2188V25.147L125.943 25.1387L122.017 34.5684H120.93L116.871 25.1553L116.829 25.1636L116.887 30.2188V33.7217L118.348 33.9541V35H114.007ZM134.385 35.1743C133.555 35.1743 132.833 34.9862 132.219 34.6099C131.604 34.228 131.129 33.6995 130.791 33.0244C130.459 32.3493 130.293 31.569 130.293 30.6836V30.3184C130.293 29.4661 130.467 28.7052 130.816 28.0356C131.17 27.3605 131.638 26.8293 132.219 26.4419C132.805 26.049 133.444 25.8525 134.136 25.8525C134.944 25.8525 135.619 26.0186 136.162 26.3506C136.709 26.6826 137.122 27.1502 137.398 27.7534C137.675 28.3511 137.813 29.0566 137.813 29.8701V30.8911H131.986L131.961 30.9326C131.972 31.5081 132.072 32.02 132.26 32.4683C132.454 32.911 132.731 33.2596 133.09 33.5142C133.45 33.7687 133.882 33.896 134.385 33.896C134.939 33.896 135.423 33.8185 135.838 33.6636C136.258 33.5031 136.621 33.2845 136.925 33.0078L137.564 34.0703C137.243 34.3802 136.817 34.6431 136.286 34.8589C135.76 35.0692 135.127 35.1743 134.385 35.1743ZM132.036 29.6128H136.178V29.397C136.178 28.9653 136.101 28.5807 135.946 28.2432C135.796 27.9001 135.569 27.6317 135.265 27.438C134.966 27.2388 134.59 27.1392 134.136 27.1392C133.771 27.1392 133.439 27.2471 133.14 27.4629C132.841 27.6732 132.595 27.9609 132.401 28.3262C132.208 28.6914 132.08 29.1064 132.02 29.5713L132.036 29.6128ZM142.777 35.1743C142.174 35.1743 141.61 35.1134 141.084 34.9917C140.558 34.87 139.999 34.6818 139.407 34.4272L139.391 32.2939H140.627L140.935 33.5806C141.244 33.7078 141.543 33.8019 141.831 33.8628C142.124 33.9181 142.44 33.9458 142.777 33.9458C143.441 33.9458 143.917 33.8185 144.205 33.564C144.493 33.3094 144.637 32.994 144.637 32.6177C144.637 32.2635 144.49 31.9647 144.197 31.7212C143.909 31.4722 143.383 31.2619 142.62 31.0903C141.535 30.8413 140.735 30.5093 140.221 30.0942C139.712 29.6737 139.457 29.1147 139.457 28.4175C139.457 27.9305 139.598 27.4961 139.88 27.1143C140.163 26.7269 140.556 26.4198 141.059 26.1929C141.563 25.966 142.149 25.8525 142.819 25.8525C143.5 25.8525 144.081 25.93 144.562 26.085C145.049 26.2399 145.472 26.4474 145.832 26.7075L145.915 28.7578H144.687L144.421 27.5625C144.227 27.4186 143.998 27.3079 143.732 27.2305C143.466 27.153 143.162 27.1143 142.819 27.1143C142.31 27.1143 141.895 27.2332 141.574 27.4712C141.258 27.7091 141.101 28.008 141.101 28.3677C141.101 28.578 141.145 28.7606 141.233 28.9155C141.327 29.0705 141.505 29.2116 141.765 29.3389C142.025 29.4606 142.407 29.5824 142.91 29.7041C144.161 29.9974 145.032 30.3709 145.525 30.8247C146.023 31.2785 146.272 31.8374 146.272 32.5015C146.272 33.2596 145.99 33.896 145.425 34.4106C144.866 34.9198 143.984 35.1743 142.777 35.1743ZM151.261 35.1743C150.658 35.1743 150.093 35.1134 149.567 34.9917C149.042 34.87 148.483 34.6818 147.891 34.4272L147.874 32.2939H149.111L149.418 33.5806C149.728 33.7078 150.027 33.8019 150.314 33.8628C150.608 33.9181 150.923 33.9458 151.261 33.9458C151.925 33.9458 152.401 33.8185 152.688 33.564C152.976 33.3094 153.12 32.994 153.12 32.6177C153.12 32.2635 152.973 31.9647 152.68 31.7212C152.392 31.4722 151.867 31.2619 151.103 31.0903C150.018 30.8413 149.219 30.5093 148.704 30.0942C148.195 29.6737 147.94 29.1147 147.94 28.4175C147.94 27.9305 148.082 27.4961 148.364 27.1143C148.646 26.7269 149.039 26.4198 149.542 26.1929C150.046 25.966 150.633 25.8525 151.302 25.8525C151.983 25.8525 152.564 25.93 153.045 26.085C153.532 26.2399 153.956 26.4474 154.315 26.7075L154.398 28.7578H153.17L152.904 27.5625C152.711 27.4186 152.481 27.3079 152.215 27.2305C151.95 27.153 151.645 27.1143 151.302 27.1143C150.793 27.1143 150.378 27.2332 150.057 27.4712C149.742 27.7091 149.584 28.008 149.584 28.3677C149.584 28.578 149.628 28.7606 149.717 28.9155C149.811 29.0705 149.988 29.2116 150.248 29.3389C150.508 29.4606 150.89 29.5824 151.394 29.7041C152.644 29.9974 153.516 30.3709 154.008 30.8247C154.506 31.2785 154.755 31.8374 154.755 32.5015C154.755 33.2596 154.473 33.896 153.909 34.4106C153.35 34.9198 152.467 35.1743 151.261 35.1743ZM159.014 35.1743C158.078 35.1743 157.367 34.9474 156.88 34.4937C156.393 34.0343 156.15 33.3896 156.15 32.5596C156.15 31.9896 156.305 31.4943 156.615 31.0737C156.93 30.6476 157.384 30.3184 157.976 30.0859C158.568 29.848 159.277 29.729 160.101 29.729H161.703V28.8491C161.703 28.3068 161.537 27.8862 161.205 27.5874C160.879 27.2886 160.417 27.1392 159.819 27.1392C159.443 27.1392 159.116 27.1862 158.839 27.2803C158.563 27.3688 158.311 27.4933 158.084 27.6538L157.91 28.9072H156.648V26.8486C157.052 26.5221 157.522 26.2759 158.059 26.1099C158.596 25.9383 159.191 25.8525 159.844 25.8525C160.934 25.8525 161.789 26.1126 162.409 26.6328C163.028 27.153 163.338 27.8973 163.338 28.8657V33.1904C163.338 33.3066 163.338 33.4201 163.338 33.5308C163.344 33.6414 163.352 33.7521 163.363 33.8628L164.235 33.9541V35H161.886C161.836 34.7565 161.797 34.5379 161.77 34.3442C161.742 34.1506 161.722 33.9569 161.711 33.7632C161.396 34.1672 161 34.5047 160.524 34.7759C160.054 35.0415 159.55 35.1743 159.014 35.1743ZM159.254 33.8047C159.797 33.8047 160.292 33.6746 160.74 33.4146C161.188 33.1545 161.509 32.8418 161.703 32.4766V30.8496H160.043C159.29 30.8496 158.726 31.0295 158.35 31.3892C157.973 31.7489 157.785 32.1501 157.785 32.5928C157.785 32.9857 157.907 33.2873 158.15 33.4976C158.394 33.7023 158.762 33.8047 159.254 33.8047ZM169.448 38.6274C169.016 38.6274 168.549 38.5666 168.045 38.4448C167.541 38.3286 167.099 38.1681 166.717 37.9634L167.14 36.6934C167.444 36.8538 167.804 36.9867 168.219 37.0918C168.634 37.1969 169.038 37.2495 169.431 37.2495C170.162 37.2495 170.696 37.0448 171.033 36.6353C171.376 36.2257 171.548 35.6419 171.548 34.8838V34.0288C171.255 34.4051 170.903 34.6901 170.494 34.8838C170.084 35.0775 169.614 35.1743 169.083 35.1743C168.352 35.1743 167.721 34.9945 167.19 34.6348C166.659 34.2695 166.249 33.7632 165.961 33.1157C165.679 32.4627 165.538 31.7074 165.538 30.8496V30.6753C165.538 29.7124 165.679 28.8685 165.961 28.1436C166.249 27.4186 166.659 26.8569 167.19 26.4585C167.721 26.0545 168.358 25.8525 169.099 25.8525C169.664 25.8525 170.159 25.9632 170.585 26.1846C171.011 26.4059 171.368 26.7269 171.656 27.1475L171.805 26.0186H173.183V34.8838C173.183 35.6585 173.036 36.3254 172.743 36.8843C172.455 37.4432 172.032 37.8721 171.473 38.1709C170.92 38.4753 170.245 38.6274 169.448 38.6274ZM169.489 33.8462C169.982 33.8462 170.394 33.7355 170.726 33.5142C171.058 33.2873 171.332 32.9691 171.548 32.5596V28.4258C171.338 28.0439 171.064 27.7424 170.726 27.521C170.389 27.2941 169.982 27.1807 169.506 27.1807C168.986 27.1807 168.551 27.3301 168.203 27.6289C167.86 27.9277 167.602 28.34 167.431 28.8657C167.259 29.3859 167.173 29.9891 167.173 30.6753V30.8496C167.173 31.7516 167.364 32.4766 167.746 33.0244C168.128 33.5723 168.709 33.8462 169.489 33.8462ZM172.934 27.355L172.295 26.0186H174.295V27.0645L172.934 27.355ZM179.16 35.1743C178.33 35.1743 177.607 34.9862 176.993 34.6099C176.379 34.228 175.903 33.6995 175.565 33.0244C175.233 32.3493 175.067 31.569 175.067 30.6836V30.3184C175.067 29.4661 175.242 28.7052 175.59 28.0356C175.944 27.3605 176.412 26.8293 176.993 26.4419C177.58 26.049 178.219 25.8525 178.911 25.8525C179.719 25.8525 180.394 26.0186 180.936 26.3506C181.484 26.6826 181.896 27.1502 182.173 27.7534C182.45 28.3511 182.588 29.0566 182.588 29.8701V30.8911H176.761L176.736 30.9326C176.747 31.5081 176.847 32.02 177.035 32.4683C177.228 32.911 177.505 33.2596 177.865 33.5142C178.224 33.7687 178.656 33.896 179.16 33.896C179.713 33.896 180.197 33.8185 180.612 33.6636C181.033 33.5031 181.395 33.2845 181.7 33.0078L182.339 34.0703C182.018 34.3802 181.592 34.6431 181.061 34.8589C180.535 35.0692 179.901 35.1743 179.16 35.1743ZM176.811 29.6128H180.953V29.397C180.953 28.9653 180.875 28.5807 180.72 28.2432C180.571 27.9001 180.344 27.6317 180.04 27.438C179.741 27.2388 179.364 27.1392 178.911 27.1392C178.545 27.1392 178.213 27.2471 177.915 27.4629C177.616 27.6732 177.369 27.9609 177.176 28.3262C176.982 28.6914 176.855 29.1064 176.794 29.5713L176.811 29.6128Z" fill="white"/>
</svg>
